<svg width="61" height="62" viewBox="0 0 61 62" fill="none" xmlns="http://www.w3.org/2000/svg">
<path d="M40.7809 31.0001V41.031M40.7809 23.477V23.502M53.3195 18.4615V43.5387C53.3195 46.199 52.2627 48.7504 50.3816 50.6316C48.5004 52.5127 45.949 53.5696 43.2887 53.5696H18.2115C15.5511 53.5696 12.9998 52.5127 11.1186 50.6316C9.23745 48.7504 8.18063 46.199 8.18063 43.5387V18.4615C8.18063 15.8012 9.23745 13.2498 11.1186 11.3686C12.9998 9.48748 15.5511 8.43066 18.2115 8.43066H43.2887C45.949 8.43066 48.5004 9.48748 50.3816 11.3686C52.2627 13.2498 53.3195 15.8012 53.3195 18.4615Z" stroke="#959595" stroke-width="4" stroke-linecap="round" stroke-linejoin="round"/>
<path d="M18.2115 41.031L21.0327 33.5078M21.0327 33.5078L25.7346 20.9692L30.4366 33.5078M21.0327 33.5078H30.4366M33.2578 41.031L30.4366 33.5078" stroke="#959595" stroke-width="4" stroke-linecap="round" stroke-linejoin="round"/>
</svg>
