<svg width="62" height="62" viewBox="0 0 62 62" fill="none" xmlns="http://www.w3.org/2000/svg">
<path fill-rule="evenodd" clip-rule="evenodd" d="M32.8807 39.4586C34.618 40.8521 36.7696 41.6276 38.9963 41.6629C41.2231 41.6982 43.3982 40.9913 45.1788 39.6536C46.9593 38.316 48.2439 36.4237 48.8301 34.2753C49.4162 32.1268 49.2706 29.8443 48.416 27.7877C47.7015 26.0606 46.5185 24.5675 45.0005 23.477C46.2954 22.5488 47.3503 21.3253 48.0778 19.9079C48.8052 18.4905 49.1842 16.9201 49.1834 15.3269C49.1834 12.6665 48.1266 10.1151 46.2454 8.23399C44.3643 6.35284 41.8129 5.29602 39.1525 5.29602H22.8524C20.7287 5.29541 18.6597 5.96881 16.9432 7.21925C15.2267 8.46968 13.9513 10.2326 13.3008 12.2542C12.6503 14.2758 12.6581 16.4516 13.3232 18.4684C13.9884 20.4853 15.2764 22.239 17.0019 23.477C15.7075 24.4057 14.6529 25.6293 13.9255 27.0466C13.198 28.4638 12.8186 30.034 12.8186 31.627C12.8186 33.2201 13.198 34.7903 13.9255 36.2075C14.6529 37.6248 15.7075 38.8484 17.0019 39.7771C15.6054 40.7792 14.4899 42.1232 13.7622 43.6804C13.0346 45.2375 12.7193 46.9555 12.8465 48.6696C12.9738 50.3836 13.5393 52.0363 14.4889 53.4689C15.4385 54.9015 16.7403 56.0661 18.2695 56.851C19.7986 57.6358 21.5037 58.0146 23.2213 57.9509C24.9389 57.8873 26.6113 57.3833 28.0782 56.4875C29.545 55.5916 30.757 54.3339 31.598 52.8349C32.439 51.3359 32.8807 49.646 32.8807 47.9272V39.4586ZM22.8499 9.0576C21.1871 9.0576 19.5925 9.71811 18.4168 10.8938C17.2411 12.0695 16.5806 13.6642 16.5806 15.3269C16.5806 16.9896 17.2411 18.5842 18.4168 19.7599C19.5925 20.9357 21.1871 21.5962 22.8499 21.5962H29.1191V9.0576H22.8499ZM29.1191 41.6579H22.8499C21.6099 41.6579 20.3978 42.0256 19.3668 42.7145C18.3358 43.4034 17.5323 44.3825 17.0578 45.528C16.5833 46.6736 16.4591 47.9342 16.701 49.1503C16.9429 50.3664 17.54 51.4835 18.4168 52.3603C19.2936 53.237 20.4107 53.8341 21.6268 54.076C22.8429 54.3179 24.1034 54.1938 25.249 53.7193C26.3946 53.2448 27.3737 52.4412 28.0626 51.4102C28.7515 50.3793 29.1191 49.1672 29.1191 47.9272V41.6579ZM22.8499 25.3578C21.1871 25.3578 19.5925 26.0183 18.4168 27.194C17.2411 28.3697 16.5806 29.9643 16.5806 31.627C16.5806 33.2898 17.2411 34.8844 18.4168 36.0601C19.5925 37.2358 21.1871 37.8963 22.8499 37.8963H29.1191V25.3578H22.8499ZM32.8807 31.627C32.8807 33.2901 33.5414 34.885 34.7173 36.061C35.8933 37.2369 37.4882 37.8976 39.1513 37.8976C40.8143 37.8976 42.4093 37.2369 43.5852 36.061C44.7612 34.885 45.4218 33.2901 45.4218 31.627C45.4218 29.964 44.7612 28.3691 43.5852 27.1931C42.4093 26.0171 40.8143 25.3565 39.1513 25.3565C37.4882 25.3565 35.8933 26.0171 34.7173 27.1931C33.5414 28.3691 32.8807 29.964 32.8807 31.627ZM39.15 21.5962C40.8127 21.5962 42.4074 20.9357 43.5831 19.7599C44.7588 18.5842 45.4193 16.9896 45.4193 15.3269C45.4193 13.6642 44.7588 12.0695 43.5831 10.8938C42.4074 9.71811 40.8127 9.0576 39.15 9.0576H32.8807V21.5962H39.15Z" fill="#959595"/>
</svg>
