<svg width="61" height="60" viewBox="0 0 61 60" fill="none" xmlns="http://www.w3.org/2000/svg">
<path fill-rule="evenodd" clip-rule="evenodd" d="M17.7612 10.9168C26.1636 9.9855 34.643 9.9855 43.0454 10.9168C44.6493 11.0944 46.1467 11.8075 47.2954 12.9409C48.4442 14.0743 49.1773 15.5619 49.3763 17.1634C50.3718 25.675 50.3718 34.2736 49.3763 42.7851C49.1773 44.3866 48.4442 45.8742 47.2954 47.0076C46.1467 48.1411 44.6493 48.8542 43.0454 49.0317C34.6431 49.9631 26.1636 49.9631 17.7612 49.0317C16.1573 48.8542 14.66 48.1411 13.5112 47.0076C12.3625 45.8742 11.6293 44.3866 11.4303 42.7851C10.4348 34.2736 10.4348 25.675 11.4303 17.1634C11.6293 15.5619 12.3625 14.0743 13.5112 12.9409C14.66 11.8075 16.1573 11.0944 17.7612 10.9168ZM43.4575 7.21758C34.7813 6.25576 26.0253 6.25576 17.3491 7.21758C12.3539 7.77371 8.31943 11.7088 7.73351 16.7289C6.70415 25.5292 6.70415 34.4194 7.73351 43.2196C8.31943 48.2397 12.3514 52.1748 17.3491 52.7334C26.0254 53.6943 34.7812 53.6943 43.4575 52.7334C48.4527 52.1748 52.4872 48.2397 53.0731 43.2196C54.1024 34.4194 54.1024 25.5292 53.0731 16.7289C52.4872 11.7088 48.4552 7.77371 43.4575 7.2151M23.8861 38.6638H20.5543V20.5027C21.756 20.2842 23.4219 20.1203 25.6886 20.1203C28.1465 20.1203 29.949 20.6392 31.1233 21.6224C32.2157 22.5236 32.9258 23.971 32.9258 25.6916C32.9258 27.4394 32.3796 28.8868 31.3418 29.87C30.0011 31.2082 27.9007 31.8363 25.5247 31.8363C24.8966 31.8363 24.3231 31.809 23.8861 31.7271V38.6638ZM25.8227 22.6875C24.8966 22.6875 24.2412 22.7694 23.8861 22.8513V29.078C24.2958 29.1872 24.842 29.2146 25.5247 29.2146C28.0373 29.2146 29.5666 27.9856 29.5666 25.8281C29.5666 23.7799 28.1465 22.6875 25.8252 22.6875M37.6206 38.6638H34.2615V29.6515C34.2615 27.8491 34.2366 26.5655 34.1522 25.3638H37.0744L37.1836 27.9037H37.2929C37.9483 26.0193 39.505 25.0634 40.9251 25.0634C41.2528 25.0634 41.4465 25.0907 41.7196 25.1454V28.3133C41.3958 28.242 41.0654 28.2054 40.7339 28.2041C39.1226 28.2041 38.0302 29.2419 37.7298 30.7439C37.6621 31.0858 37.6256 31.4332 37.6206 31.7817V38.6638Z" fill="#959595"/>
</svg>
