<svg width="61" height="62" viewBox="0 0 61 62" fill="none" xmlns="http://www.w3.org/2000/svg">
<path d="M53.0695 18.4615V43.5387C53.0695 46.199 52.0127 48.7504 50.1315 50.6316C48.2504 52.5127 45.699 53.5696 43.0386 53.5696H17.9615C15.3011 53.5696 12.7497 52.5127 10.8686 50.6316C8.98742 48.7504 7.9306 46.199 7.9306 43.5387V18.4615C7.9306 15.8012 8.98742 13.2498 10.8686 11.3686C12.7497 9.48748 15.3011 8.43066 17.9615 8.43066H43.0386C45.699 8.43066 48.2504 9.48748 50.1315 11.3686C52.0127 13.2498 53.0695 15.8012 53.0695 18.4615Z" stroke="#959595" stroke-width="4" stroke-linecap="round" stroke-linejoin="round"/>
<path d="M17.9615 41.031V31.0001M17.9615 31.0001V20.9692H22.9769C24.3071 20.9692 25.5828 21.4976 26.5234 22.4382C27.4639 23.3788 27.9924 24.6545 27.9924 25.9847C27.9924 27.3148 27.4639 28.5905 26.5234 29.5311C25.5828 30.4717 24.3071 31.0001 22.9769 31.0001H17.9615ZM43.0387 28.4924C42.2713 26.9552 40.699 25.9847 38.9812 25.9847H38.0232C37.0256 25.9847 36.0688 26.381 35.3634 27.0864C34.658 27.7918 34.2616 28.7486 34.2616 29.7462C34.2616 30.7439 34.658 31.7006 35.3634 32.4061C36.0688 33.1115 37.0256 33.5078 38.0232 33.5078H39.2771C40.2747 33.5078 41.2315 33.9041 41.9369 34.6096C42.6423 35.315 43.0387 36.2718 43.0387 37.2694C43.0387 38.267 42.6423 39.2238 41.9369 39.9292C41.2315 40.6347 40.2747 41.031 39.2771 41.031H38.3191C37.4767 41.031 36.6508 40.7963 35.9342 40.3534C35.2176 39.9105 34.6384 39.2768 34.2616 38.5233" stroke="#959595" stroke-width="4" stroke-linecap="round" stroke-linejoin="round"/>
</svg>
