<svg width="61" height="62" viewBox="0 0 61 62" fill="none" xmlns="http://www.w3.org/2000/svg">
<path d="M17.7114 20.9692L27.7423 41.031M17.7114 41.031L27.7423 20.9692M52.8194 18.4615V43.5387C52.8194 46.199 51.7626 48.7504 49.8815 50.6316C48.0003 52.5127 45.4489 53.5696 42.7886 53.5696H17.7114C15.0511 53.5696 12.4997 52.5127 10.6185 50.6316C8.73736 48.7504 7.68054 46.199 7.68054 43.5387V18.4615C7.68054 15.8012 8.73736 13.2498 10.6185 11.3686C12.4997 9.48748 15.0511 8.43066 17.7114 8.43066H42.7886C45.4489 8.43066 48.0003 9.48748 49.8815 11.3686C51.7626 13.2498 52.8194 15.8012 52.8194 18.4615Z" stroke="#959595" stroke-width="4" stroke-linecap="round" stroke-linejoin="round"/>
<path d="M42.7886 31.0001V39.5263C42.7886 39.7239 42.7496 39.9196 42.674 40.1021C42.5984 40.2847 42.4876 40.4505 42.3479 40.5902C42.2081 40.73 42.0423 40.8408 41.8597 40.9164C41.6772 40.992 41.4815 41.0309 41.2839 41.0309H37.7731C36.4429 41.0309 35.1673 40.5025 34.2267 39.562C33.2861 38.6214 32.7577 37.3457 32.7577 36.0155C32.7577 34.6853 33.2861 33.4096 34.2267 32.4691C35.1673 31.5285 36.4429 31.0001 37.7731 31.0001H42.7886ZM42.7886 31.0001V23.4769" stroke="#959595" stroke-width="4" stroke-linecap="round" stroke-linejoin="round"/>
</svg>
